<?xml version="1.0" encoding="UTF-8" standalone="no"?>
<!-- Created with Inkscape (http://www.inkscape.org/) -->

<svg
   xmlns:dc="http://purl.org/dc/elements/1.1/"
   xmlns:cc="http://creativecommons.org/ns#"
   xmlns:rdf="http://www.w3.org/1999/02/22-rdf-syntax-ns#"
   xmlns:svg="http://www.w3.org/2000/svg"
   xmlns="http://www.w3.org/2000/svg"
   xmlns:sodipodi="http://sodipodi.sourceforge.net/DTD/sodipodi-0.dtd"
   xmlns:inkscape="http://www.inkscape.org/namespaces/inkscape"
   width="176.20737mm"
   height="197.77971mm"
   viewBox="0 0 176.20736 197.77971"
   version="1.1"
   id="svg16"
   inkscape:version="0.92.1 r15371">
  <defs
     id="defs10" />
  <sodipodi:namedview
     id="base"
     pagecolor="#ffffff"
     bordercolor="#666666"
     borderopacity="1.0"
     inkscape:pageopacity="0.0"
     inkscape:pageshadow="2"
     inkscape:zoom="0.70710678"
     inkscape:cx="368.12456"
     inkscape:cy="290.16754"
     inkscape:document-units="mm"
     inkscape:current-layer="layer1"
     showgrid="false"
     fit-margin-top="0"
     fit-margin-left="0"
     fit-margin-right="0"
     fit-margin-bottom="0"
     inkscape:window-width="1920"
     inkscape:window-height="1001"
     inkscape:window-x="-9"
     inkscape:window-y="-9"
     inkscape:window-maximized="1" />
  <metadata
     id="metadata13">
    <rdf:RDF>
      <cc:Work
         rdf:about="">
        <dc:format>image/svg+xml</dc:format>
        <dc:type
           rdf:resource="http://purl.org/dc/dcmitype/StillImage" />
        <dc:title></dc:title>
      </cc:Work>
    </rdf:RDF>
  </metadata>
  <g
     inkscape:label="Layer 1"
     inkscape:groupmode="layer"
     id="layer1"
     transform="translate(-28.401263,-27.493775)">
    <path
       style="fill:none;stroke:#000000;stroke-width:0.26458332px;stroke-linecap:butt;stroke-linejoin:miter;stroke-opacity:1"
       d="m 68.41369,63.788689 c 34.77381,12.095239 20.788691,37.797621 20.788691,37.797621 0,0 -10.583334,24.19047 -42.333333,16.63095 -31.750001,-7.55952 -20.410715,42.71131 10.205357,16.63095 30.61607,-26.08036 80.508925,7.18155 57.074405,51.40476 -23.434526,44.22322 57.83035,61.9881 41.95535,-4.91369 -15.875,-66.90178 11.33929,-49.89285 28.34822,-48.00297 17.00893,1.88988 41.95536,-32.12798 -13.98512,-41.955358 -55.94048,-9.827382 -20.41071,-22.300597 -0.75595,-40.065476 19.65476,-17.764881 -8.31548,-44.2232143 -25.32441,0 C 127.37797,95.538688 90.336308,54.717261 82.020832,38.08631 73.705357,21.455357 29.860118,48.669643 68.41369,63.788689 Z"
       id="path18"
       inkscape:connector-curvature="0" />
    <path
       style="fill:#00ff00;stroke-width:1.41421354"
       d="m 395.40521,749.16931 c -33.43231,-4.25855 -61.6711,-23.25753 -74.86007,-50.36562 -6.07533,-12.48701 -8.58002,-23.71992 -8.56862,-38.4282 0.0141,-18.30556 3.93852,-32.77588 15.61387,-57.57348 17.04505,-36.20244 22.57581,-57.44189 22.5414,-86.56442 -0.0776,-65.69568 -43.99541,-121.54588 -109.91876,-139.78358 -9.27092,-2.56481 -14.93616,-3.0513 -36.43376,-3.12867 -22.46645,-0.0809 -26.78445,0.28874 -36.76955,3.14741 -18.05317,5.16848 -38.15567,15.75448 -55.31453,29.12867 -27.633502,21.53847 -40.817275,27.87837 -59.943877,28.82621 -15.602079,0.77316 -25.34943,-2.62094 -34.870771,-12.14227 C 7.6190104,413.02382 3.1673206,402.79478 2.4988223,389.2392 1.7533548,374.12287 4.7708012,365.58254 14.182423,356.17092 27.49702,342.85632 45.49778,340.26574 77.207157,347.1007 c 13.708056,2.95478 19.9299,3.49646 39.597983,3.44749 19.70476,-0.0491 25.1841,-0.55757 35.22485,-3.26904 22.46232,-6.06586 39.72431,-15.71102 55.79605,-31.17613 28.31369,-27.24495 40.84672,-62.03049 34.22355,-94.98774 -3.86744,-19.24454 -10.36049,-30.96497 -25.40885,-45.86484 -15.29433,-15.1434 -28.50875,-23.39112 -54.51695,-34.02652 -33.3212,-13.62586 -49.91462,-24.27536 -59.08801,-37.92213 -12.203879,-18.155056 -9.099377,-36.164979 9.4361,-54.741002 21.01743,-21.063397 55.82325,-30.727221 75.83656,-21.055993 7.66157,3.702373 11.96642,8.47543 19.09059,21.166909 18.11942,32.279148 49.95659,68.486316 79.81884,90.774836 29.62475,22.11125 58.91083,32.03698 82.6911,28.02592 25.10757,-4.23495 46.61743,-22.70045 62.01337,-53.23642 2.40753,-4.77504 8.15922,-17.523531 12.78153,-28.329985 10.10156,-23.61631 20.05409,-41.268709 30.68801,-54.430107 23.67302,-29.2996231 52.69496,-37.7218752 71.85843,-20.853519 8.98035,7.904821 12.87131,17.534146 12.8032,31.685314 -0.1325,27.531846 -12.98622,42.902612 -71.86027,85.932157 -50.84814,37.16362 -63.08955,49.71835 -63.08955,64.70433 0,21.75267 28.04792,34.77322 109.60155,50.87984 56.63993,11.18623 86.60132,22.45197 108.55858,40.81898 26.63724,22.28176 32.43878,51.30676 15.68042,78.44893 -9.34447,15.13449 -28.06966,29.98191 -44.02934,34.91135 -13.07741,4.03919 -21.91518,3.53465 -53.51278,-3.05499 -21.84769,-4.5563 -31.42612,-5.89547 -42.98942,-6.01041 -14.15651,-0.14071 -15.34423,0.0815 -24.48119,4.57928 -21.31946,10.49484 -28.83928,31.9234 -27.37364,78.00435 0.8866,27.8759 4.57294,53.58906 13.70612,95.60373 8.75599,40.27958 9.95222,47.74448 10.85478,67.73793 2.59586,57.50389 -18.42098,96.62098 -59.1875,110.16124 -10.33585,3.43296 -27.14243,5.34012 -36.52606,4.14485 z"
       id="path38"
       inkscape:connector-curvature="0"
       transform="matrix(0.26458333,0,0,0.26458333,27.768779,26.961169)" />
  </g>
</svg>
